<svg viewBox="228.929 171.5177 432.142 308.9646" width="5000" height="3574.804115313948" xmlns="http://www.w3.org/2000/svg" xmlns:xlink="http://www.w3.org/1999/xlink" preserveAspectRatio="none"><defs></defs><style>.aD6z1nYkhcolor {fill:#3171E0;fill-opacity:1;}.aIptOCySncolors-0 {fill:#3171E0;fill-opacity:1;}</style><g opacity="1" transform="rotate(0 368.9999 171.5177)">
<svg width="152.0002" height="188.1905" x="368.9999" y="171.5177" version="1.1" preserveAspectRatio="none" viewBox="29 26 42 52">
  <g transform="matrix(1 0 0 1 0 0)" class="aIptOCySncolors-0"><g><path d="M40,59c0-0.2763672,0.1123047-0.5263672,0.293457-0.7075195L46,52.5859375V46   c0-0.3037109,0.1430664-0.5668945,0.3569336-0.75l-0.0078125-0.0092773L53,39.5400391V33   c0-0.2763672,0.1123047-0.5263672,0.293457-0.7075195L59.5859375,26H30c-0.5522461,0-1,0.4477539-1,1v49.5859375l11-11V59z"></path><path d="M30.4140625,78H70c0.5522461,0,1-0.4477539,1-1V67H41.4140625L30.4140625,78z"></path><rect x="55" y="34" width="16" height="5"></rect><rect x="42" y="60" width="29" height="5"></rect><path d="M71,32v-5c0-0.5522461-0.4477539-1-1-1h-7.5859375l-6,6H71z"></path><polygon points="49.7036133,45 71,45 71,41 54.3701172,41  "></polygon><polygon points="43.4140625,58 71,58 71,54 47.4140625,54  "></polygon><rect x="48" y="47" width="23" height="5"></rect></g></g>
</svg>
</g><g opacity="1" transform="rotate(0 228.929 401.0644)">
<svg width="432.142" height="79.4179" x="228.929" y="401.0644" version="1.1" preserveAspectRatio="none" viewBox="0 -28.4 157.8 29">
  <g transform="matrix(1 0 0 1 0 0)" class="aD6z1nYkhcolor"><path d="M7.40 0.60Q3.72 0.60 1.86-0.68Q0-1.96 0-3.80L0-3.80Q0-5.16 0.82-5.98Q1.64-6.80 3-6.80L3-6.80Q3.32-6.80 3.64-6.74Q3.96-6.68 4.08-6.68L4.08-6.68L4.60-6.60L4.60-0.60Q4.88-0.44 5.16-0.40L5.16-0.40Q5.84-0.20 6.60-0.20L6.60-0.20Q11.40-0.20 11.40-8L11.40-8L11.40-26.80L9-27.40L9-28L20.40-28L20.40-27.40L18-26.80L18-8Q18-3.84 15.40-1.62Q12.80 0.60 7.40 0.60L7.40 0.60Z M35.40 0L24 0L24-0.60L26.40-1.20L26.40-26.80L24-27.40L24-28L35.40-28L35.40-27.40L33-26.80L33-1.20L35.40-0.60L35.40 0Z M35.40 0L35.40-0.60L38.60-1.80L49.60-28.40L50.80-28.40L62.20-1.20L64.20-0.60L64.20 0L59.40 0Q57.32 0 56-0.94Q54.68-1.88 54.04-3.40L54.04-3.40L52-8.20L42.44-8.20L39.80-1.80L42.80-0.60L42.80 0L35.40 0ZM47.20-19.72L42.84-9.20L51.60-9.20L47.20-19.72Z M87.60 0.60L69.00-21.20L69.00-1.80L72.20-0.60L72.20 0L64.60 0L64.60-0.60L67.80-1.80L67.80-26.60L65.00-27.40L65.00-28L69.20-28Q71.32-28 72.52-27.24Q73.72-26.48 74.80-25.20L74.80-25.20L87.60-10.20L87.60-26.20L84.40-27.40L84.40-28L92-28L92-27.40L88.80-26.20L88.80 0.60L87.60 0.60Z M99.60 0.60Q95.92 0.60 94.06-0.68Q92.20-1.96 92.20-3.80L92.20-3.80Q92.20-5.16 93.02-5.98Q93.84-6.80 95.20-6.80L95.20-6.80Q95.52-6.80 95.84-6.74Q96.16-6.68 96.28-6.68L96.28-6.68L96.80-6.60L96.80-0.60Q97.08-0.44 97.36-0.40L97.36-0.40Q98.04-0.20 98.80-0.20L98.80-0.20Q103.60-0.20 103.60-8L103.60-8L103.60-26.80L101.20-27.40L101.20-28L112.60-28L112.60-27.40L110.20-26.80L110.20-8Q110.20-3.84 107.60-1.62Q105 0.60 99.60 0.60L99.60 0.60Z M127.60 0L116.20 0L116.20-0.60L118.60-1.20L118.60-26.80L116.20-27.40L116.20-28L127.60-28L127.60-27.40L125.20-26.80L125.20-1.20L127.60-0.60L127.60 0Z M153.40 0.60L134.80-21.20L134.80-1.80L138-0.60L138 0L130.40 0L130.40-0.60L133.60-1.80L133.60-26.60L130.80-27.40L130.80-28L135-28Q137.12-28 138.32-27.24Q139.52-26.48 140.60-25.20L140.60-25.20L153.40-10.20L153.40-26.20L150.20-27.40L150.20-28L157.80-28L157.80-27.40L154.60-26.20L154.60 0.60L153.40 0.60Z"/></g>
</svg>
</g></svg>